<?xml version="1.0" standalone="no"?>
<!DOCTYPE svg PUBLIC "-//W3C//DTD SVG 20010904//EN"
 "http://www.w3.org/TR/2001/REC-SVG-20010904/DTD/svg10.dtd">
<svg version="1.0" xmlns="http://www.w3.org/2000/svg"
 width="726.000000pt" height="726.000000pt" viewBox="0 0 726.000000 726.000000"
 preserveAspectRatio="xMidYMid meet">

<g transform="translate(0.000000,726.000000) scale(0.100000,-0.100000)"
fill="#000000" stroke="none">
<path d="M2405 5914 c-671 -387 -1223 -708 -1226 -712 -8 -8 2429 -1416 2451
-1416 8 0 565 317 1237 704 899 519 1218 708 1210 716 -12 11 -2442 1414
-2449 1414 -1 -1 -552 -318 -1223 -706z"/>
<path d="M1042 4574 l3 -406 1215 -702 c668 -386 1221 -705 1228 -709 10 -7
12 73 10 398 l-3 406 -1100 635 c-605 349 -1157 668 -1228 709 l-127 74 2
-405z m1947 -1025 c201 -115 372 -218 379 -227 6 -8 12 -25 12 -37 0 -28 -42
-68 -68 -63 -38 6 -764 433 -772 453 -8 22 5 65 23 77 7 4 23 8 36 8 14 0 185
-92 390 -211z"/>
<path d="M4988 4268 l-1228 -710 0 -1419 c0 -780 2 -1419 5 -1419 3 0 556 318
1230 707 l1225 707 0 1423 c0 783 -1 1423 -2 1422 -2 -1 -555 -321 -1230 -711z
m1066 373 c43 -47 40 -49 -452 -333 -255 -148 -474 -268 -487 -268 -30 0 -47
22 -43 57 3 25 45 52 463 294 253 147 469 268 481 268 11 1 29 -8 38 -18z m0
-250 c41 -45 29 -55 -294 -243 -168 -97 -314 -177 -326 -177 -11 -1 -29 8 -39
19 -39 43 -23 55 297 242 167 97 312 177 324 177 11 1 29 -8 38 -18z m0 -250
c41 -45 27 -57 -244 -213 -737 -426 -798 -460 -820 -453 -27 9 -45 47 -33 70
13 22 1031 613 1059 614 11 1 29 -8 38 -18z m0 -250 c41 -45 28 -56 -269 -228
-189 -110 -288 -162 -305 -160 -15 1 -30 13 -40 29 -14 26 -13 29 5 48 31 30
547 328 571 329 11 1 29 -8 38 -18z m0 -250 c39 -43 22 -59 -174 -173 -192
-112 -230 -125 -250 -87 -24 45 -8 60 187 172 103 59 195 107 204 107 9 0 24
-9 33 -19z m0 -250 c40 -45 26 -57 -238 -210 -219 -127 -252 -143 -275 -135
-32 11 -42 63 -16 84 33 27 480 280 496 280 9 0 24 -9 33 -19z"/>
<path d="M1040 3483 l1 -388 1171 -675 c644 -371 1197 -690 1230 -708 l58 -33
0 389 0 388 -1224 707 c-674 389 -1227 707 -1230 707 -3 0 -6 -174 -6 -387z
m1924 -1015 c397 -228 416 -240 416 -271 0 -36 -28 -67 -60 -67 -33 0 -732
397 -768 437 -15 17 -21 32 -16 46 7 27 41 57 62 57 9 0 173 -91 366 -202z"/>
<path d="M1040 2468 l0 -333 1221 -705 c671 -388 1224 -706 1230 -708 5 -2 9
125 9 330 l-1 333 -1221 705 c-672 388 -1225 707 -1230 708 -4 2 -8 -146 -8
-330z m1924 -1000 c397 -228 416 -240 416 -271 0 -36 -28 -67 -60 -67 -34 0
-731 397 -768 437 -15 17 -21 32 -16 46 7 27 41 57 62 57 8 0 173 -91 366
-202z"/>
</g>
</svg>
